<svg xmlns="http://www.w3.org/2000/svg" fill="none" viewBox="0 0 220 213.9201614863243" class="css-1j8o68f"><defs id="SvgjsDefs2626"><linearGradient id="SvgjsLinearGradient2631"><stop id="SvgjsStop2632" stop-color="#fbb040" offset="0"></stop><stop id="SvgjsStop2633" stop-color="#f9ed32" offset="1"></stop></linearGradient></defs><g id="SvgjsG2627" featurekey="e7LhAk-0" transform="matrix(11.430460546735487,0,0,11.430460546735487,-26.89795216986117,-42.292701842733976)" fill="url(#SvgjsLinearGradient2631)"><g xmlns="http://www.w3.org/2000/svg"><circle cx="12" cy="5.7" r="2"></circle><path d="M17.2,5.5c0-0.6-0.4-1-1-1c-0.6,0-1,0.4-1,1c0,1.8-1.4,3.2-3.2,3.2c-1.8,0-3.2-1.4-3.2-3.2c0-0.6-0.4-1-1-1   c-0.6,0-1,0.4-1,1c0,2.9,2.3,5.2,5.2,5.2C14.9,10.7,17.2,8.4,17.2,5.5z"></path><circle cx="18" cy="15.7" r="2"></circle><path d="M21.2,11.6c-1.1-0.8-2.5-1.1-3.9-0.9c-1.4,0.2-2.6,1-3.4,2.1c-1.7,2.3-1.1,5.6,1.3,7.3c0.2,0.1,0.4,0.2,0.6,0.2   c0.3,0,0.6-0.1,0.8-0.4c0.3-0.5,0.2-1.1-0.2-1.4c-1.4-1-1.8-3-0.8-4.5c1-1.4,3-1.8,4.5-0.8c0.5,0.3,1.1,0.2,1.4-0.2   C21.7,12.5,21.6,11.9,21.2,11.6z"></path><circle cx="6" cy="15.7" r="2"></circle><path d="M6.7,10.7c-1.4-0.2-2.7,0.1-3.9,0.9c-0.5,0.3-0.6,0.9-0.2,1.4c0.3,0.5,0.9,0.6,1.4,0.2c1.4-1,3.4-0.7,4.5,0.8   c1,1.4,0.7,3.4-0.8,4.5c-0.5,0.3-0.6,0.9-0.2,1.4c0.2,0.3,0.5,0.4,0.8,0.4c0.2,0,0.4-0.1,0.6-0.2c1.1-0.8,1.9-2,2.1-3.4   c0.2-1.4-0.1-2.7-0.9-3.9C9.3,11.7,8.1,11,6.7,10.7z"></path></g></g></svg>